<?xml version="1.0" encoding="utf-8"?>
<!-- Generator: Adobe Illustrator 24.1.2, SVG Export Plug-In . SVG Version: 6.00 Build 0)  -->
<svg version="1.1" id="Layer_1" xmlns="http://www.w3.org/2000/svg" xmlns:xlink="http://www.w3.org/1999/xlink" x="0px" y="0px"
	 viewBox="0 0 1600 1200" style="enable-background:new 0 0 1600 1200;" xml:space="preserve">
<style type="text/css">
	.st0{fill:#F7941D;}
	.st1{fill:#0E1F33;}
	.st2{fill:#FBB040;}
</style>
<g>
	<g>
		<g>
			<g>
				<path class="st0" d="M330.43,537.28v52.23c10.79-13.98,24.03-18.15,37.77-18.15c34.33,0,49.54,23.3,49.54,58.86v48.8
					c0,8.26-6.7,14.96-14.96,14.96h0c-8.26,0-14.96-6.7-14.96-14.96v-48.56c0-22.07-11.53-31.39-27.47-31.39
					c-17.66,0-29.92,14.96-29.92,33.11v46.84c0,8.26-6.7,14.96-14.96,14.96h0c-8.26,0-14.96-6.7-14.96-14.96V537.28
					c0-8.26,6.7-14.96,14.96-14.96h0C323.73,522.33,330.43,529.02,330.43,537.28z"/>
			</g>
		</g>
		<g>
			<path class="st0" d="M467.5,539c0,23.3-35.31,23.3-35.31,0C432.19,515.7,467.5,515.7,467.5,539z"/>
		</g>
		<g>
			<path class="st0" d="M434.88,587.56v91.47c0,8.26,6.7,14.96,14.96,14.96h0c8.26,0,14.96-6.7,14.96-14.96v-91.47
				c0-8.26-6.7-14.96-14.96-14.96h0C441.58,572.6,434.88,579.3,434.88,587.56z"/>
		</g>
		<g>
			<g>
				<path class="st0" d="M511.86,585.2l0.29,1.86c9.32-14.96,21.83-17.17,34.09-17.17c6.03,0,11.94,1.14,17.19,3.06
					c8.16,2.99,11.9,12.41,7.9,20.13l-0.57,1.1c-3.31,6.37-10.75,9.14-17.57,6.91c-3.09-1.01-6.58-1.53-10.87-1.53
					c-15.69,0-30.16,8.34-30.16,30.65v49.41c0,7.93-6.43,14.35-14.35,14.35h-1.21c-7.93,0-14.35-6.43-14.35-14.35v-92.19
					c0-7.93,6.43-14.35,14.35-14.35h1.09C504.74,573.09,510.76,578.23,511.86,585.2z"/>
			</g>
		</g>
		<g>
			<g>
				<path class="st0" d="M607.81,644.21c1.96,14.96,14.96,25.75,36.05,25.75c7.75,0,17.19-2.06,24.51-5.74
					c5.28-2.66,11.63-1.82,15.84,2.33l0,0c6.49,6.4,4.94,17.3-3.11,21.57c-11.48,6.09-25.18,9.06-37.73,9.06
					c-41.69,0-66.46-25.75-66.46-64.5c0-36.78,25.01-63.27,64.25-63.27c36.54,0,60.68,20.4,61.59,61.01
					c0.17,7.57-5.97,13.79-13.54,13.79H607.81z M673.53,619.44c-1.96-15.69-14.22-23.54-31.39-23.54
					c-16.18,0-29.43,7.85-33.84,23.54H673.53z"/>
			</g>
		</g>
		<g>
			<g>
				<path class="st0" d="M842.88,537.37v141.82c0,8.17-6.63,14.8-14.8,14.8h0c-7.5,0-13.82-5.62-14.7-13.07l-0.42-3.61
					c-9.32,14.47-24.28,19.37-38.99,19.37c-35.56,0-62.29-23.54-62.29-63.27c0-41.69,26.24-63.27,61.55-63.27
					c12.75,0,32.62,6.87,39.73,19.37v-52.15c0-8.17,6.63-14.8,14.8-14.8h0.32C836.26,522.57,842.88,529.2,842.88,537.37z
					 M741.6,633.42c0,21.09,15.21,35.56,34.33,35.56c18.88,0,35.07-13.73,35.07-35.56c0-21.09-16.19-35.31-35.07-35.31
					C756.81,598.1,741.6,611.59,741.6,633.42z"/>
			</g>
		</g>
	</g>
	<g>
		<path class="st1" d="M877.39,522.57h-0.08c-8.17,0-14.8,6.63-14.8,14.8v141.82c0,8.17,6.63,14.8,14.8,14.8h0.08
			c8.17,0,14.8-6.63,14.8-14.8V537.37C892.19,529.2,885.57,522.57,877.39,522.57z"/>
		<path class="st1" d="M1024.94,573.09h-0.16c-7.78,0-14.2,6.06-14.66,13.82l-0.17,2.85c-6.87-12.02-22.32-19.62-38.5-19.62
			c-35.31-0.25-63.02,21.58-63.02,63.27c0,42.42,26.48,64.5,62.29,64.25c13.49-0.24,32.37-7.11,39.24-21.34l0.35,4.19
			c0.63,7.61,7,13.47,14.64,13.47l0,0c8.11,0,14.69-6.58,14.69-14.69v-91.52C1039.62,579.66,1033.05,573.09,1024.94,573.09z
			 M974.15,670.2c-19.86,0-35.8-13.73-35.8-36.78c0-23.05,15.94-36.54,35.8-36.54C1021.23,596.88,1021.23,670.2,974.15,670.2z"/>
		<path class="st1" d="M1247.75,619.68c-15.45-0.98-22.56-5.4-22.56-13.24c0-7.6,7.85-12.02,22.07-12.02
			c8.31,0,15.73,1.4,22.44,5.22c4.82,2.74,10.95,1.49,14.54-2.74c5.66-6.65,3.55-16.87-4.28-20.73c-9.85-4.85-20.46-6.52-33.19-6.52
			c-22.07,0-51.01,9.81-51.01,37.77c0,27.47,27.22,35.8,50.03,37.52c17.17,0.98,24.03,4.41,24.03,12.75
			c0,8.83-10.54,14.71-21.83,14.47c-9.56-0.17-22.2-3.8-31.8-9.3c-6.11-3.5-13.86-1.86-17.85,3.93c-4.17,6.04-2.66,14.26,3.28,18.57
			c14.77,10.68,30.33,12.79,45.88,12.79c34.58,0,51.99-18.39,51.99-39.73C1299.49,626.3,1270.55,621.15,1247.75,619.68z"/>
		<path class="st1" d="M1119.49,569.63c-13.11,0-25.31,3.91-35.53,10.61v-65.32c0-8.08-6.55-14.62-14.62-14.62
			s-14.62,6.55-14.62,14.62v114.18c-0.16,1.83-0.25,3.69-0.25,5.56c0,35.86,29.17,65.03,65.03,65.03
			c35.86,0,65.03-29.17,65.03-65.03C1184.53,598.81,1155.35,569.63,1119.49,569.63z M1119.49,670.45
			c-19.35,0-35.16-15.44-35.76-34.66c0.14-0.81,0.23-1.63,0.23-2.48v-2.85c2.08-17.76,17.22-31.59,35.53-31.59
			c19.73,0,35.79,16.05,35.79,35.79C1155.28,654.4,1139.23,670.45,1119.49,670.45z"/>
	</g>
	<g>
		<g>
			<path class="st2" d="M1145.7,632.28c0,0-14.3-14.75-29.05,0C1116.65,632.28,1131.63,655.8,1145.7,632.28z"/>
		</g>
	</g>
	<g>
		<g>
			<g>
				<path class="st0" d="M1119.49,634.73c-12.64-12.15-22.63-5.1-26.27-1.61c-0.03,0.53-0.05,1.07-0.05,1.61
					c0,14.54,11.78,26.32,26.32,26.32c14.54,0,26.32-11.78,26.32-26.32c0-0.83-0.04-1.65-0.12-2.46
					C1144.51,634.19,1134.5,649.15,1119.49,634.73z"/>
			</g>
		</g>
	</g>
	<g>
		<g>
			<circle class="st0" cx="1131.32" cy="619.24" r="3.25"/>
		</g>
	</g>
	<g>
		<g>
			<circle class="st0" cx="1110.55" cy="615.02" r="6.74"/>
		</g>
	</g>
	<g>
		<g>
			<circle class="st2" cx="1103.82" cy="640.48" r="2.1"/>
		</g>
	</g>
	<g>
		<g>
			<circle class="st2" cx="1121.02" cy="647.22" r="5.16"/>
		</g>
	</g>
</g>
</svg>
